<svg width="80" height="80" viewBox="0 0 80 80" fill="none" xmlns="http://www.w3.org/2000/svg">
  <!-- ReacTouch 高解像度グラデーションロゴ -->
  <defs>
    <linearGradient id="reactouchGradient" x1="0%" y1="0%" x2="100%" y2="0%">
      <stop offset="0%" style="stop-color:#22D3EE;stop-opacity:1" />
      <stop offset="50%" style="stop-color:#9333EA;stop-opacity:1" />
      <stop offset="100%" style="stop-color:#E11D48;stop-opacity:1" />
    </linearGradient>
  </defs>
  <g transform="translate(5, 5) scale(3.125)">
    <path
      d="M12 10.11c1.03 0 1.87.84 1.87 1.89 0 1-.84 1.85-1.87 1.85S10.13 13 10.13 12c0-1.05.84-1.89 1.87-1.89zM7.37 20c.63.38 2.01-.2 3.6-1.7-.52-.59-1.03-1.23-1.51-1.9a22.7 22.7 0 0 1-2.4-.36c-.51 2.14-.32 3.61.31 3.96zm.71-5.74l-.29-.51c-.11.29-.22.58-.29.86.27.06.57.11.88.16l-.3-.51zm6.54-.76l.81-1.5-.81-1.5c-.3-.53-.62-1-.91-1.47C13.17 9 12.6 9 12 9s-1.17 0-1.71.03c-.29.47-.61.94-.91 1.47L8.57 12l.81 1.5c.3.53.62 1 .91 1.47.54.03 1.11.03 1.71.03s1.17 0 1.71-.03c.29-.47.61-.94.91-1.47zM12 6.78c-.19.22-.39.45-.59.72h1.18c-.2-.27-.4-.5-.59-.72zm0 10.44c.19-.22.39-.45.59-.72h-1.18c.2.27.4.5.59.72zM16.62 4c-.62-.38-2 .2-3.59 1.7.52.59 1.03 1.23 1.51 1.9.82.08 1.63.2 2.4.36.51-2.14.32-3.61-.32-3.96zm-.7 5.74l.29.51c.11-.29.22-.58.29-.86-.27-.06-.57-.11-.88-.16l.3.51zm1.45-7.05c1.47.84 1.63 3.05 1.01 5.63 2.54.75 4.37 1.99 4.37 3.68s-1.83 2.93-4.37 3.68c.62 2.58.46 4.79-1.01 5.63-1.46.84-3.45-.12-5.37-1.95-1.92 1.83-3.91 2.79-5.37 1.95-1.47-.84-1.63-3.05-1.01-5.63-2.54-.75-4.37-1.99-4.37-3.68s1.83-2.93 4.37-3.68c-.62-2.58-.46-4.79 1.01-5.63 1.46-.84 3.45.12 5.37 1.95 1.92-1.83 3.91-2.79 5.37-1.95z"
      fill="url(#reactouchGradient)"
    />
  </g>
</svg>